<svg width="60" height="63" viewBox="0 0 60 63" fill="none" xmlns="http://www.w3.org/2000/svg">
<rect x="2.35297" y="4.44116" width="57.6471" height="57.6471" rx="5.88235" fill="#F9D806"/>
<path fill-rule="evenodd" clip-rule="evenodd" d="M5.88235 3.26468H51.7647C53.7139 3.26468 55.2941 4.84485 55.2941 6.7941V52.6765C55.2941 54.6257 53.7139 56.2059 51.7647 56.2059H5.88235C3.93311 56.2059 2.35294 54.6257 2.35294 52.6764V6.79409C2.35294 4.84485 3.93311 3.26468 5.88235 3.26468ZM0 6.79409C0 3.54536 2.63362 0.911743 5.88235 0.911743H51.7647C55.0134 0.911743 57.6471 3.54536 57.6471 6.7941V52.6765C57.6471 55.9252 55.0134 58.5588 51.7647 58.5588H5.88235C2.63362 58.5588 0 55.9252 0 52.6764V6.79409ZM19.7497 28.7628C18.2951 27.2363 16.0324 29.3734 17.487 30.8998L26.9281 39.6638C27.5746 40.2743 28.5443 40.2743 29.1908 39.6638L47.4936 22.3778C48.9482 21.004 46.6855 18.7144 45.2309 20.2408L28.0595 36.4583L19.7497 28.7628Z" fill="#22252D"/>
</svg>
