<svg width="64" height="21" viewBox="0 0 64 21" fill="none" xmlns="http://www.w3.org/2000/svg">
<path d="M27.3934 11.0511C27.3934 14.071 25.0246 16.2963 22.1175 16.2963C19.2105 16.2963 16.8417 14.071 16.8417 11.0511C16.8417 8.00993 19.2105 5.80591 22.1175 5.80591C25.0246 5.80591 27.3934 8.00993 27.3934 11.0511ZM25.0838 11.0511C25.0838 9.16396 23.7109 7.87277 22.1175 7.87277C20.5241 7.87277 19.1512 9.16396 19.1512 11.0511C19.1512 12.9193 20.5241 14.2294 22.1175 14.2294C23.7109 14.2294 25.0838 12.9169 25.0838 11.0511Z" fill="#EA4335"/>
<path d="M38.7745 11.0511C38.7745 14.071 36.4057 16.2963 33.4986 16.2963C30.5916 16.2963 28.2228 14.071 28.2228 11.0511C28.2228 8.01229 30.5916 5.80591 33.4986 5.80591C36.4057 5.80591 38.7745 8.00993 38.7745 11.0511ZM36.4649 11.0511C36.4649 9.16396 35.092 7.87277 33.4986 7.87277C31.9052 7.87277 30.5323 9.16396 30.5323 11.0511C30.5323 12.9193 31.9052 14.2294 33.4986 14.2294C35.092 14.2294 36.4649 12.9169 36.4649 11.0511Z" fill="#FBBC05"/>
<path d="M49.6813 6.1228V15.5395C49.6813 19.4131 47.3908 20.9952 44.6829 20.9952C42.1339 20.9952 40.5998 19.2949 40.0212 17.9044L42.0319 17.0696C42.39 17.9233 43.2673 18.9307 44.6805 18.9307C46.4138 18.9307 47.488 17.8642 47.488 15.8564V15.102H47.4074C46.8905 15.7382 45.8946 16.2939 44.6378 16.2939C42.0082 16.2939 39.5991 14.0095 39.5991 11.07C39.5991 8.10925 42.0082 5.80591 44.6378 5.80591C45.8922 5.80591 46.8881 6.36164 47.4074 6.97886H47.488V6.12516H49.6813V6.1228ZM47.6516 11.07C47.6516 9.22308 46.4162 7.87277 44.8441 7.87277C43.2507 7.87277 41.9157 9.22308 41.9157 11.07C41.9157 12.898 43.2507 14.2294 44.8441 14.2294C46.4162 14.2294 47.6516 12.898 47.6516 11.07Z" fill="#4285F4"/>
<path d="M53.2974 0.603271V15.9746H51.0448V0.603271H53.2974Z" fill="#34A853"/>
<path d="M62.0763 12.7773L63.8689 13.9692C63.2903 14.8229 61.8961 16.2938 59.487 16.2938C56.4993 16.2938 54.2681 13.9905 54.2681 11.0487C54.2681 7.92945 56.5183 5.80347 59.2285 5.80347C61.9578 5.80347 63.2927 7.96965 63.729 9.14024L63.9685 9.73617L56.938 12.6402C57.4763 13.6925 58.3133 14.2293 59.487 14.2293C60.6631 14.2293 61.4788 13.6523 62.0763 12.7773ZM56.5586 10.8902L61.2583 8.94396C60.9998 8.2889 60.2221 7.83249 59.3068 7.83249C58.1331 7.83249 56.4993 8.86592 56.5586 10.8902Z" fill="#EA4335"/>
<path d="M8.31397 9.68648V7.46118H15.8329C15.9064 7.84901 15.9444 8.30779 15.9444 8.8044C15.9444 10.474 15.4867 12.5385 14.0119 14.0094C12.5773 15.4992 10.7444 16.2938 8.31634 16.2938C3.81587 16.2938 0.0314941 12.6378 0.0314941 8.14935C0.0314941 3.6609 3.81587 0.00488281 8.31634 0.00488281C10.8061 0.00488281 12.5797 0.979191 13.9123 2.2491L12.3378 3.81935C11.3823 2.92544 10.0876 2.23018 8.31397 2.23018C5.02754 2.23018 2.45719 4.8717 2.45719 8.14935C2.45719 11.427 5.02754 14.0685 8.31397 14.0685C10.4456 14.0685 11.6597 13.2148 12.4374 12.4391C13.0682 11.8101 13.4831 10.9115 13.6467 9.68412L8.31397 9.68648Z" fill="#4285F4"/>
</svg>
