<svg width="64" height="69" viewBox="0 0 64 69" fill="none" xmlns="http://www.w3.org/2000/svg">
<path d="M62.353 51.1666H54.1177V3.38894C54.1177 3.15574 54.04 2.92845 53.8956 2.73926C53.7512 2.55008 53.5475 2.4086 53.3132 2.33485C53.079 2.26111 52.8261 2.25884 52.5904 2.32837C52.3547 2.39791 52.1482 2.53571 52 2.72228L49.4118 5.98116L46.8235 2.72228C46.7092 2.59103 46.5655 2.48533 46.4028 2.41276C46.24 2.34019 46.0623 2.30256 45.8824 2.30256C45.7024 2.30256 45.5247 2.34019 45.362 2.41276C45.1992 2.48533 45.0555 2.59103 44.9412 2.72228L42.353 5.98116L39.7647 2.72228C39.6504 2.59103 39.5067 2.48533 39.344 2.41276C39.1812 2.34019 39.0035 2.30256 38.8235 2.30256C38.6436 2.30256 38.4659 2.34019 38.3031 2.41276C38.1404 2.48533 37.9967 2.59103 37.8824 2.72228L35.2941 5.98116L32.7059 2.72228C32.5916 2.59103 32.4479 2.48533 32.2851 2.41276C32.1224 2.34019 31.9447 2.30256 31.7647 2.30256C31.5848 2.30256 31.407 2.34019 31.2443 2.41276C31.0816 2.48533 30.9379 2.59103 30.8235 2.72228L28.2353 5.98116L25.6471 2.72228C25.5327 2.59103 25.389 2.48533 25.2263 2.41276C25.0636 2.34019 24.8859 2.30256 24.7059 2.30256C24.5259 2.30256 24.3482 2.34019 24.1855 2.41276C24.0228 2.48533 23.8791 2.59103 23.7647 2.72228L21.1765 5.98116L18.5883 2.72228C18.4739 2.59103 18.3302 2.48533 18.1675 2.41276C18.0048 2.34019 17.827 2.30256 17.6471 2.30256C17.4671 2.30256 17.2894 2.34019 17.1267 2.41276C16.9639 2.48533 16.8202 2.59103 16.7059 2.72228L14.1177 5.98116L11.5294 2.72228C11.4151 2.59103 11.2714 2.48533 11.1087 2.41276C10.9459 2.34019 10.7682 2.30256 10.5883 2.30256C10.4083 2.30256 10.2306 2.34019 10.0678 2.41276C9.90512 2.48533 9.76142 2.59103 9.64708 2.72228L7.05885 5.98116L4.47061 2.72228C4.32246 2.53571 4.11591 2.39791 3.88022 2.32837C3.64453 2.25884 3.39165 2.26111 3.1574 2.33485C2.92315 2.4086 2.71941 2.55008 2.57503 2.73926C2.43066 2.92845 2.35297 3.15574 2.35297 3.38894V61.1666C2.35546 63.2286 3.2239 65.2056 4.76778 66.6637C6.31166 68.1218 8.40489 68.942 10.5883 68.9443H57.6471C59.2066 68.9426 60.7017 68.3567 61.8045 67.3152C62.9072 66.2737 63.5276 64.8617 63.5294 63.3888V52.2777C63.5294 51.983 63.4055 51.7004 63.1848 51.492C62.9642 51.2837 62.665 51.1666 62.353 51.1666Z" fill="#F9D806"/>
<path d="M60 48.9444H51.7647V1.16677C51.7647 0.93357 51.687 0.706279 51.5426 0.517096C51.3982 0.327912 51.1945 0.186428 50.9603 0.112683C50.726 0.0389375 50.4731 0.0366711 50.2374 0.106204C50.0017 0.175738 49.7952 0.313546 49.647 0.500108L47.0588 3.75899L44.4706 0.500108C44.3562 0.368865 44.2125 0.263163 44.0498 0.190594C43.8871 0.118025 43.7094 0.0803888 43.5294 0.0803888C43.3494 0.0803888 43.1717 0.118025 43.009 0.190594C42.8463 0.263163 42.7026 0.368865 42.5882 0.500108L40 3.75899L37.4118 0.500108C37.2974 0.368865 37.1537 0.263163 36.991 0.190594C36.8283 0.118025 36.6505 0.0803888 36.4706 0.0803888C36.2906 0.0803888 36.1129 0.118025 35.9502 0.190594C35.7874 0.263163 35.6437 0.368865 35.5294 0.500108L32.9412 3.75899L30.3529 0.500108C30.2386 0.368865 30.0949 0.263163 29.9322 0.190594C29.7694 0.118025 29.5917 0.0803888 29.4118 0.0803888C29.2318 0.0803888 29.0541 0.118025 28.8913 0.190594C28.7286 0.263163 28.5849 0.368865 28.4706 0.500108L25.8823 3.75899L23.2941 0.500108C23.1798 0.368865 23.0361 0.263163 22.8733 0.190594C22.7106 0.118025 22.5329 0.0803888 22.3529 0.0803888C22.173 0.0803888 21.9953 0.118025 21.8325 0.190594C21.6698 0.263163 21.5261 0.368865 21.4118 0.500108L18.8235 3.75899L16.2353 0.500108C16.1209 0.368865 15.9773 0.263163 15.8145 0.190594C15.6518 0.118025 15.4741 0.0803888 15.2941 0.0803888C15.1142 0.0803888 14.9364 0.118025 14.7737 0.190594C14.611 0.263163 14.4673 0.368865 14.3529 0.500108L11.7647 3.75899L9.17647 0.500108C9.06213 0.368865 8.91843 0.263163 8.7557 0.190594C8.59297 0.118025 8.41525 0.0803888 8.23529 0.0803888C8.05533 0.0803888 7.87761 0.118025 7.71488 0.190594C7.55215 0.263163 7.40846 0.368865 7.29412 0.500108L4.70588 3.75899L2.11765 0.500108C1.96949 0.313546 1.76294 0.175738 1.52726 0.106204C1.29157 0.0366711 1.03869 0.0389375 0.804438 0.112683C0.570188 0.186428 0.366445 0.327912 0.222068 0.517096C0.0776911 0.706279 0 0.93357 0 1.16677V58.9444C0.00249101 61.0065 0.870936 62.9834 2.41481 64.4415C3.95869 65.8996 6.05192 66.7198 8.23529 66.7222H55.2941C56.8536 66.7204 58.3487 66.1345 59.4515 65.093C60.5542 64.0516 61.1746 62.6395 61.1765 61.1666V50.0555C61.1765 49.7609 61.0525 49.4782 60.8319 49.2699C60.6112 49.0615 60.312 48.9444 60 48.9444ZM2.35294 58.9444V4.5001L3.7647 6.27787C3.87905 6.40911 4.02274 6.51482 4.18547 6.58738C4.3482 6.65995 4.52592 6.69759 4.70588 6.69759C4.88584 6.69759 5.06356 6.65995 5.22629 6.58738C5.38902 6.51482 5.53272 6.40911 5.64706 6.27787L8.23529 3.01899L10.8235 6.27787C10.9379 6.40911 11.0816 6.51482 11.2443 6.58738C11.407 6.65995 11.5847 6.69759 11.7647 6.69759C11.9447 6.69759 12.1224 6.65995 12.2851 6.58738C12.4478 6.51482 12.5915 6.40911 12.7059 6.27787L15.2941 3.01899L17.8823 6.27787C17.9967 6.40911 18.1404 6.51482 18.3031 6.58738C18.4658 6.65995 18.6436 6.69759 18.8235 6.69759C19.0035 6.69759 19.1812 6.65995 19.3439 6.58738C19.5067 6.51482 19.6504 6.40911 19.7647 6.27787L22.3529 3.01899L24.9412 6.27787C25.0555 6.40911 25.1992 6.51482 25.3619 6.58738C25.5247 6.65995 25.7024 6.69759 25.8823 6.69759C26.0623 6.69759 26.24 6.65995 26.4028 6.58738C26.5655 6.51482 26.7092 6.40911 26.8235 6.27787L29.4118 3.01899L32 6.27787C32.1143 6.40911 32.258 6.51482 32.4208 6.58738C32.5835 6.65995 32.7612 6.69759 32.9412 6.69759C33.1211 6.69759 33.2988 6.65995 33.4616 6.58738C33.6243 6.51482 33.768 6.40911 33.8823 6.27787L36.4706 3.01899L39.0588 6.27787C39.1732 6.40911 39.3169 6.51482 39.4796 6.58738C39.6423 6.65995 39.82 6.69759 40 6.69759C40.1799 6.69759 40.3577 6.65995 40.5204 6.58738C40.6831 6.51482 40.8268 6.40911 40.9412 6.27787L43.5294 3.01899L46.1176 6.27787C46.232 6.40911 46.3757 6.51482 46.5384 6.58738C46.7011 6.65995 46.8789 6.69759 47.0588 6.69759C47.2388 6.69759 47.4165 6.65995 47.5792 6.58738C47.742 6.51482 47.8856 6.40911 48 6.27787L49.4118 4.5001V61.1666C49.4161 62.3727 49.8402 63.544 50.6188 64.5H8.23529C6.67577 64.4982 5.18066 63.9123 4.0779 62.8708C2.97515 61.8293 2.35481 60.4173 2.35294 58.9444ZM58.8235 61.1666C58.8235 62.0507 58.4517 62.8985 57.7898 63.5236C57.1279 64.1488 56.2302 64.5 55.2941 64.5C54.358 64.5 53.4603 64.1488 52.7984 63.5236C52.1365 62.8985 51.7647 62.0507 51.7647 61.1666V51.1667H58.8235V61.1666Z" fill="#22252D"/>
<path d="M26.6048 33.935H26.3363C23.3105 33.935 20.875 31.6103 20.875 28.7849C20.875 25.9596 23.3105 23.6341 26.3363 23.6341C29.3621 23.6341 31.7969 25.9595 31.7969 28.7849C31.7969 29.4172 32.3315 29.905 32.9615 29.905C33.5914 29.905 34.1261 29.4172 34.1261 28.7849C34.1261 25.0731 31.2337 22.0153 27.5009 21.4814V19.7866C27.5009 19.1543 26.9663 18.6666 26.3363 18.6666C25.7064 18.6666 25.1718 19.1543 25.1718 19.7866V21.4814C21.4388 22.0153 18.5458 25.073 18.5458 28.7849C18.5458 32.8743 22.0553 36.175 26.3363 36.175H26.6048C29.6306 36.175 32.0662 38.5005 32.0662 41.3259C32.0662 44.1513 29.6306 46.4767 26.6048 46.4767C23.5791 46.4767 21.1443 44.1513 21.1443 41.3259C21.1443 40.6936 20.6096 40.2059 19.9797 40.2059C19.3498 40.2059 18.8151 40.6936 18.8151 41.3259C18.8151 44.9481 21.571 47.9433 25.1718 48.5823V50.3242C25.1718 50.9565 25.7064 51.4443 26.3363 51.4443C26.9663 51.4443 27.5009 50.9565 27.5009 50.3242V48.6624C31.3631 48.2401 34.3954 45.1264 34.3954 41.3259C34.3954 37.2358 30.8859 33.935 26.6048 33.935Z" fill="#22252D" stroke="#22252D" stroke-width="0.555556"/>
</svg>
