<svg width="70" height="68" viewBox="0 0 70 68" fill="none" xmlns="http://www.w3.org/2000/svg">
<path d="M52.1448 4.64673C52.1448 2.65291 55.3927 2.65291 55.3927 4.64673V7.71414L61.5636 7.71414C65.6234 7.71414 69.0336 10.9349 69.0336 14.9226V60.7916C69.0336 64.7792 65.6234 68 61.5636 68L12.834 68C8.61184 68 5.2016 64.7792 5.2016 60.7916L5.2016 14.9226C5.2016 10.9349 8.61184 7.71414 12.834 7.71414L19.0049 7.71414V4.64673C19.0049 2.65291 22.2528 2.65291 22.2528 4.64673V7.71414L52.1448 7.71414V4.64673Z" fill="#F9D806"/>
<path fill-rule="evenodd" clip-rule="evenodd" d="M54.0147 1.26503C54.0147 -0.421677 51.2671 -0.421677 51.2671 1.26503V3.85997H15.3911V1.26503C15.3911 -0.421677 12.6435 -0.421677 12.6435 1.26503V3.85997H7.42312C3.85127 3.85997 0.966309 6.58465 0.966309 9.95807V58.7619C0.966309 62.1353 3.85127 64.86 7.42312 64.86H59.2351C62.6696 64.86 65.5546 62.1353 65.5546 58.7619V9.95807C65.5546 6.58465 62.6696 3.85997 59.2351 3.85997H54.0147V1.26503ZM54.0147 9.04984V6.45491H59.2351C61.1584 6.45491 62.807 8.01187 62.807 9.95807V14.7587H3.71389V9.95807C3.71389 8.01187 5.36244 6.45491 7.42312 6.45491H12.6435V9.04984C12.6435 10.7366 15.3911 10.7366 15.3911 9.04984V6.45491H51.2671V9.04984C51.2671 10.7366 54.0147 10.7366 54.0147 9.04984ZM3.71389 58.7619V17.3536H62.807V58.7619C62.807 60.7081 61.1584 62.265 59.2351 62.265H7.42312C5.36244 62.265 3.71389 60.7081 3.71389 58.7619ZM23.4906 37.0467C22.2542 35.7493 20.3309 37.5657 21.5673 38.8632L29.5923 46.3125C30.1418 46.8315 30.9661 46.8315 31.5156 46.3125L47.073 31.6195C48.3094 30.4518 46.3861 28.5056 45.1496 29.8031L30.5539 43.5879L23.4906 37.0467Z" fill="#22252D"/>
</svg>
