<svg width="166" height="23" viewBox="0 0 166 23" fill="none" xmlns="http://www.w3.org/2000/svg">
<path d="M41.6119 2.68533C40.9965 2.83503 40.5558 3.09283 40.2896 3.45875C40.0235 3.82467 39.8904 4.39018 39.8904 5.15528V17.3803C39.8904 18.1454 40.0235 18.7109 40.2896 19.0768C40.5558 19.4427 40.9965 19.7005 41.6119 19.8502V19.9999H34.0773V19.8502C34.6927 19.7005 35.1335 19.4427 35.3996 19.0768C35.6658 18.7109 35.7988 18.1454 35.7988 17.3803V11.4674H29.5616V17.3803C29.5616 18.1454 29.6946 18.7109 29.9608 19.0768C30.2269 19.4427 30.6676 19.7005 31.2831 19.8502V19.9999H23.7485V19.8502C24.3639 19.7005 24.8046 19.4427 25.0708 19.0768C25.3369 18.7109 25.4699 18.1454 25.4699 17.3803V5.15528C25.4699 4.39018 25.3369 3.82467 25.0708 3.45875C24.8046 3.09283 24.3639 2.83503 23.7485 2.68533V2.53564H31.2831V2.68533C30.6676 2.83503 30.2269 3.09283 29.9608 3.45875C29.6946 3.82467 29.5616 4.39018 29.5616 5.15528V10.7688H35.7988V5.15528C35.7988 4.39018 35.6658 3.82467 35.3996 3.45875C35.1335 3.09283 34.6927 2.83503 34.0773 2.68533V2.53564H41.6119V2.68533ZM48.9457 20.3741C47.6817 20.3741 46.5506 20.0914 45.5527 19.5259C44.5714 18.9437 43.8063 18.137 43.2574 17.1058C42.7251 16.0746 42.459 14.902 42.459 13.588C42.459 12.274 42.7251 11.1014 43.2574 10.0702C43.8063 9.039 44.5714 8.24063 45.5527 7.67512C46.5506 7.09298 47.6817 6.80191 48.9457 6.80191C50.2098 6.80191 51.3325 7.09298 52.3139 7.67512C53.2952 8.24063 54.052 9.039 54.5842 10.0702C55.1331 11.1014 55.4075 12.274 55.4075 13.588C55.4075 14.902 55.1331 16.0746 54.5842 17.1058C54.052 18.137 53.2952 18.9437 52.3139 19.5259C51.3325 20.0914 50.2098 20.3741 48.9457 20.3741ZM48.9457 19.5758C49.8273 19.5758 50.4676 19.1017 50.8668 18.1537C51.2826 17.189 51.4905 15.6671 51.4905 13.588C51.4905 11.5089 51.2826 9.99538 50.8668 9.04732C50.4676 8.08262 49.8273 7.60028 48.9457 7.60028C48.0476 7.60028 47.3989 8.07431 46.9997 9.02237C46.6005 9.97043 46.401 11.4923 46.401 13.588C46.401 15.6671 46.6005 17.189 46.9997 18.1537C47.3989 19.1017 48.0476 19.5758 48.9457 19.5758ZM75.4053 18.2036C75.4053 18.6859 75.5217 19.0518 75.7546 19.3013C76.0041 19.5508 76.3783 19.7338 76.8773 19.8502V19.9999H70.665V19.8502C71.0309 19.7837 71.2887 19.6922 71.4384 19.5758C71.5881 19.4593 71.6796 19.2681 71.7128 19.0019V10.7189C71.7128 9.20533 71.1556 8.44854 70.0413 8.44854C69.2928 8.44854 68.7439 8.86436 68.3946 9.69599C68.4445 9.96211 68.4695 10.2532 68.4695 10.5692V18.3533C68.4695 18.819 68.5526 19.16 68.719 19.3762C68.8853 19.5924 69.1764 19.7504 69.5922 19.8502V19.9999H63.6543V19.8502C64.0701 19.7504 64.3612 19.5924 64.5275 19.3762C64.6939 19.16 64.777 18.819 64.777 18.3533V10.7189C64.777 9.20533 64.2198 8.44854 63.1054 8.44854C62.3736 8.44854 61.8497 8.83109 61.5337 9.59619V18.3533C61.5337 18.819 61.6168 19.16 61.7832 19.3762C61.9495 19.5924 62.2406 19.7504 62.6564 19.8502V19.9999H56.3692V19.8502C56.8682 19.7338 57.2341 19.5508 57.467 19.3013C57.7165 19.0518 57.8412 18.6859 57.8412 18.2036V10.2449C57.8412 9.59619 57.7331 9.14711 57.5169 8.89762C57.3173 8.6315 56.9347 8.4735 56.3692 8.42359V8.2739L61.5337 6.85181V9.19701C61.7665 8.44854 62.1823 7.8664 62.7811 7.45058C63.3799 7.01813 64.0868 6.80191 64.9018 6.80191C65.8166 6.80191 66.565 7.02645 67.1472 7.47553C67.746 7.90798 68.1368 8.51507 68.3198 9.29681C68.5693 8.54834 69.01 7.94956 69.6421 7.50048C70.2741 7.03477 71.0143 6.80191 71.8625 6.80191C72.9936 6.80191 73.8668 7.14288 74.4822 7.82482C75.0976 8.49012 75.4053 9.40492 75.4053 10.5692V18.2036ZM88.3661 15.4841C88.0833 17.164 87.4679 18.4032 86.5198 19.2015C85.5884 19.9833 84.5156 20.3741 83.3014 20.3741C82.3035 20.3741 81.3804 20.1246 80.5321 19.6257C79.7005 19.1101 79.0268 18.3616 78.5112 17.3803C78.0123 16.3989 77.7628 15.218 77.7628 13.8375C77.7628 12.4903 77.9956 11.2844 78.4613 10.2199C78.9437 9.1388 79.6173 8.29885 80.4822 7.70007C81.3471 7.1013 82.3367 6.80191 83.4511 6.80191C84.316 6.80191 85.1144 6.99319 85.8462 7.37574C86.5947 7.7583 87.1935 8.3737 87.6426 9.22196C88.1083 10.0702 88.3411 11.143 88.3411 12.4404H80.6568C80.7733 14.0205 81.214 15.243 81.9791 16.1079C82.7442 16.9728 83.7422 17.4052 84.973 17.4052C85.7215 17.4052 86.3618 17.2638 86.8941 16.9811C87.4263 16.6817 87.8588 16.1661 88.1914 15.4342L88.3661 15.4841ZM82.9023 7.50048C82.2037 7.50048 81.6465 7.8664 81.2307 8.59824C80.8315 9.31344 80.6319 10.2948 80.6319 11.5422V11.8166H84.9481C84.9647 8.9392 84.2828 7.50048 82.9023 7.50048ZM99.1273 11.0432C100.973 11.0266 102.445 11.4008 103.543 12.1659C104.641 12.931 105.19 14.0038 105.19 15.3843C105.19 16.8813 104.591 18.0289 103.394 18.8273C102.196 19.609 100.458 19.9999 98.1792 19.9999H89.946V19.8502C90.5781 19.6839 91.0189 19.4344 91.2683 19.1017C91.5345 18.7525 91.6675 18.1537 91.6675 17.3054V5.08043C91.6675 4.2987 91.5345 3.74151 91.2683 3.40885C91.0189 3.0762 90.5781 2.83503 89.946 2.68533V2.53564H98.1792C100.192 2.53564 101.714 2.88492 102.745 3.58349C103.793 4.26543 104.317 5.28834 104.317 6.65222C104.317 7.89967 103.851 8.90594 102.92 9.67104C102.005 10.4195 100.741 10.8436 99.1273 10.9434V11.0432ZM95.7592 3.15936V10.8187H96.7821C98.9277 10.8187 100 9.51303 100 6.90171C100 5.67089 99.726 4.73946 99.1772 4.10742C98.6449 3.47538 97.8466 3.15936 96.7821 3.15936H95.7592ZM97.281 19.3762C98.3123 19.3762 99.1273 19.0269 99.726 18.3283C100.325 17.6297 100.624 16.6567 100.624 15.4093C100.624 14.0288 100.325 13.0142 99.726 12.3655C99.1439 11.7002 98.2457 11.3676 97.0316 11.3676H95.7592V19.3762H97.281ZM115.792 6.80191V10.3946H115.667C115.384 10.2449 114.952 10.17 114.37 10.17C113.488 10.17 112.815 10.4777 112.349 11.0931C111.9 11.7085 111.675 12.798 111.675 14.3614V18.2036C111.675 18.7358 111.825 19.1184 112.124 19.3512C112.424 19.5841 112.931 19.7504 113.646 19.8502V19.9999H106.511V19.8502C107.01 19.7338 107.376 19.5508 107.609 19.3013C107.858 19.0518 107.983 18.6859 107.983 18.2036V10.4694C107.983 9.7542 107.875 9.25523 107.658 8.97247C107.442 8.67308 107.06 8.49845 106.511 8.44854V8.29885L111.526 6.85181V12.4404H111.65C111.75 10.511 112.133 9.0889 112.798 8.1741C113.48 7.25931 114.386 6.80191 115.517 6.80191H115.792ZM127.373 15.4841C127.09 17.164 126.475 18.4032 125.527 19.2015C124.596 19.9833 123.523 20.3741 122.309 20.3741C121.311 20.3741 120.387 20.1246 119.539 19.6257C118.708 19.1101 118.034 18.3616 117.518 17.3803C117.019 16.3989 116.77 15.218 116.77 13.8375C116.77 12.4903 117.003 11.2844 117.468 10.2199C117.951 9.1388 118.624 8.29885 119.489 7.70007C120.354 7.1013 121.344 6.80191 122.458 6.80191C123.323 6.80191 124.122 6.99319 124.853 7.37574C125.602 7.7583 126.201 8.3737 126.65 9.22196C127.115 10.0702 127.348 11.143 127.348 12.4404H119.664C119.78 14.0205 120.221 15.243 120.986 16.1079C121.751 16.9728 122.749 17.4052 123.98 17.4052C124.729 17.4052 125.369 17.2638 125.901 16.9811C126.433 16.6817 126.866 16.1661 127.199 15.4342L127.373 15.4841ZM121.909 7.50048C121.211 7.50048 120.654 7.8664 120.238 8.59824C119.839 9.31344 119.639 10.2948 119.639 11.5422V11.8166H123.955C123.972 8.9392 123.29 7.50048 121.909 7.50048ZM139.507 15.4841C139.224 17.164 138.608 18.4032 137.66 19.2015C136.729 19.9833 135.656 20.3741 134.442 20.3741C133.444 20.3741 132.521 20.1246 131.673 19.6257C130.841 19.1101 130.167 18.3616 129.652 17.3803C129.153 16.3989 128.903 15.218 128.903 13.8375C128.903 12.4903 129.136 11.2844 129.602 10.2199C130.084 9.1388 130.758 8.29885 131.623 7.70007C132.488 7.1013 133.477 6.80191 134.592 6.80191C135.457 6.80191 136.255 6.99319 136.987 7.37574C137.735 7.7583 138.334 8.3737 138.783 9.22196C139.249 10.0702 139.482 11.143 139.482 12.4404H131.797C131.914 14.0205 132.355 15.243 133.12 16.1079C133.885 16.9728 134.883 17.4052 136.114 17.4052C136.862 17.4052 137.502 17.2638 138.035 16.9811C138.567 16.6817 138.999 16.1661 139.332 15.4342L139.507 15.4841ZM134.043 7.50048C133.344 7.50048 132.787 7.8664 132.371 8.59824C131.972 9.31344 131.772 10.2948 131.772 11.5422V11.8166H136.089C136.105 8.9392 135.423 7.50048 134.043 7.50048ZM140.912 19.9999V19.9251L147.947 7.72502H146.875C145.577 7.72502 144.488 8.14915 143.606 8.99742C142.725 9.84568 142.076 11.0349 141.66 12.5651H141.536L142.259 7.17615H152.289V7.25099L145.253 19.451H146.151C147.582 19.451 148.762 19.0269 149.694 18.1786C150.625 17.3137 151.349 15.9914 151.864 14.2117H151.989L151.49 19.9999H140.912ZM164.163 15.4841C163.88 17.164 163.265 18.4032 162.317 19.2015C161.385 19.9833 160.313 20.3741 159.099 20.3741C158.101 20.3741 157.177 20.1246 156.329 19.6257C155.498 19.1101 154.824 18.3616 154.308 17.3803C153.809 16.3989 153.56 15.218 153.56 13.8375C153.56 12.4903 153.793 11.2844 154.258 10.2199C154.741 9.1388 155.414 8.29885 156.279 7.70007C157.144 7.1013 158.134 6.80191 159.248 6.80191C160.113 6.80191 160.911 6.99319 161.643 7.37574C162.392 7.7583 162.991 8.3737 163.44 9.22196C163.905 10.0702 164.138 11.143 164.138 12.4404H156.454C156.57 14.0205 157.011 15.243 157.776 16.1079C158.541 16.9728 159.539 17.4052 160.77 17.4052C161.519 17.4052 162.159 17.2638 162.691 16.9811C163.223 16.6817 163.656 16.1661 163.989 15.4342L164.163 15.4841ZM158.699 7.50048C158.001 7.50048 157.444 7.8664 157.028 8.59824C156.629 9.31344 156.429 10.2948 156.429 11.5422V11.8166H160.745C160.762 8.9392 160.08 7.50048 158.699 7.50048Z" fill="white"/>
<mask id="mask0_2_27" style="mask-type:alpha" maskUnits="userSpaceOnUse" x="0" y="2" width="19" height="19">
<path d="M14.524 2H3.55457C1.59144 2 0 3.59144 0 5.55457V16.524C0 18.4872 1.59144 20.0786 3.55457 20.0786H14.524C16.4872 20.0786 18.0786 18.4872 18.0786 16.524V5.55457C18.0786 3.59144 16.4872 2 14.524 2Z" fill="#22252D"/>
</mask>
<g mask="url(#mask0_2_27)">
<path d="M9.7168 1.45093C11.0963 2.12631 12.2674 2.84589 13.3053 3.48751C15.6016 4.9075 16.7541 5.52827 19.8897 5.52827V2.89175C17.4771 2.89175 16.7134 2.69331 14.7018 1.45093H9.7168Z" fill="white"/>
<path d="M4.89966 18.5911C2.60452 17.172 1.4524 16.5537 -1.68359 16.5537V19.1902C0.729801 19.1902 1.49274 19.3866 3.5043 20.6286H8.48891C7.10898 19.9532 5.93748 19.2332 4.89966 18.5911Z" fill="white"/>
<path d="M19.8883 7.92507C16.1076 7.92507 14.5153 6.94033 12.1039 5.44947C9.08178 3.58048 5.32127 1.45093 -1.68359 1.45093L-1.6832 4.08994C4.67659 4.08994 7.98424 5.80176 10.9031 7.60697C13.451 9.18245 15.4625 10.5616 19.8883 10.5616V7.92507ZM19.8883 17.9921C13.5285 17.9921 10.2208 16.0814 7.30159 14.2762C4.75411 12.7007 2.74295 11.5204 -1.68359 11.5204L-1.6832 14.157C2.09787 14.157 3.69019 14.9428 6.10122 16.4337C9.12291 18.3027 12.8842 20.6286 19.8887 20.6286L19.8883 17.9921Z" fill="white"/>
<path d="M19.8887 15.6259C14.1732 15.6259 11.2903 13.8428 8.50236 12.1184C5.87222 10.4921 3.38723 9.12382 -1.68359 9.12382L-1.6832 6.4873C4.03231 6.4873 6.91518 8.23706 9.70312 9.96138C12.3333 11.5877 14.8182 12.9869 19.8887 12.9869V15.6259Z" fill="white"/>
</g>
</svg>
