<svg width="68" height="81" viewBox="0 0 68 81" fill="none" xmlns="http://www.w3.org/2000/svg">
<path d="M67.9873 68.955C67.1254 64.0134 63.9691 59.6421 59.3184 56.9587C55.9976 55.0809 52.4947 53.4345 48.9417 52.0205C47.5447 51.4589 46.4441 51.0521 45.8003 50.8208V48.3463C49.6663 45.4254 52.1913 40.9332 52.4183 35.8502C54.9379 35.7654 56.9633 33.8212 56.9633 31.4281C56.9633 29.04 54.9573 27.1007 52.4552 26.9977V26.5516C52.5023 26.5034 52.5591 26.4651 52.6028 26.4138C53.4747 25.3863 53.5517 23.9074 52.5439 22.75C53.181 20.8029 54.6085 16.3417 52.2593 11.3211C49.3113 5.00901 40.1972 3.32471 35.2761 3.32471C30.355 3.32471 21.2408 5.00903 18.2929 11.3211C15.9476 16.3466 17.3546 20.7877 18.0055 22.758C17.0081 23.9105 17.0797 25.3846 17.9531 26.4138C17.9984 26.4669 18.0542 26.5094 18.1032 26.5589V27.0306C15.7716 27.2902 13.9498 29.1512 13.9498 31.428C13.9498 33.7031 15.779 35.5623 18.1176 35.8153C18.2059 40.958 20.7298 45.4473 24.732 48.416V50.8215C24.0922 51.0515 22.9982 51.4549 21.6005 52.01C17.178 53.8061 14.0988 55.3497 11.2065 56.9633C6.56319 59.6421 3.4069 64.0133 2.54497 68.955C2.48544 69.2994 2.6417 69.6461 2.9468 69.844C12.5795 76.0723 23.2326 80.0671 34.9549 80.0671C46.8628 80.0671 57.7232 75.9376 67.5681 69.8546C67.8844 69.659 68.0481 69.3064 67.9873 68.955Z" fill="#F9D806"/>
<path d="M65.455 66.5632C64.5931 61.6215 61.4368 57.2503 56.7861 54.5668C53.4653 52.6891 49.9624 51.0426 46.4094 49.6287C45.0123 49.0671 43.9118 48.6603 43.268 48.4289V45.9544C47.134 43.0335 49.659 38.5414 49.886 33.4584C52.4056 33.3736 54.431 31.4294 54.431 29.0362C54.431 26.6482 52.425 24.7089 49.9229 24.6059V24.1598C49.97 24.1115 50.0268 24.0732 50.0705 24.0219C50.9423 22.9945 51.0194 21.5155 50.0116 20.3582C50.6487 18.4111 52.0762 13.9498 49.7269 8.92926C46.779 2.61717 37.6648 0.932861 32.7438 0.932861C27.8227 0.932861 18.7085 2.61718 15.7606 8.92926C13.4152 13.9547 14.8222 18.3958 15.4732 20.3662C14.4758 21.5186 14.5474 22.9927 15.4208 24.0219C15.466 24.0751 15.5219 24.1176 15.5708 24.1671V24.6387C13.2393 24.8984 11.4174 26.7594 11.4174 29.0362C11.4174 31.3112 13.2467 33.1705 15.5853 33.4235C15.6735 38.5662 18.1975 43.0554 22.1997 46.0242V48.4297C21.5599 48.6596 20.4659 49.063 19.0682 49.6181C14.6457 51.4142 11.5664 52.9579 8.67414 54.5715C4.03087 57.2502 0.874584 61.6215 0.0126527 66.5632C-0.0468828 66.9075 0.109385 67.2542 0.414479 67.4522C10.0471 73.6805 20.7002 77.6752 32.4226 77.6752C44.3305 77.6752 55.1909 73.5458 65.0358 67.4627C65.3521 67.2672 65.5158 66.9146 65.455 66.5632ZM20.3964 61.4083V51.0451C21.1409 50.7542 21.7861 50.5107 22.2865 50.3268C22.3066 50.4726 22.3407 50.614 22.3677 50.7577C23.2609 55.5724 27.7563 58.9369 32.74 58.9369C37.7641 58.9369 42.2146 55.5481 43.1023 50.7451C43.1282 50.6051 43.1617 50.4675 43.1812 50.3256C43.685 50.5117 44.3343 50.7584 45.0837 51.0543V61.4083H20.3964V61.4083ZM13.4625 54.1117C15.1868 53.2608 16.8246 52.5233 18.4915 51.8243V61.4084H13.4625V54.1117ZM46.9886 51.8242C48.4988 52.4482 50.4515 53.3336 52.0188 54.1091V61.4083H46.9886V51.8242ZM16.9065 22.8952C16.4401 22.3464 16.6507 21.5802 17.2637 21.2237C26.6497 15.763 38.6072 15.627 48.2275 21.2237C48.8423 21.5812 49.0496 22.3465 48.586 22.8952C48.2337 23.3051 47.5591 23.4457 47.1101 23.1821C38.2942 18.0042 27.2082 17.9939 18.3824 23.1821C17.9247 23.4492 17.2575 23.3098 16.9065 22.8952ZM52.526 29.0362C52.526 30.4255 51.3742 31.5558 49.9229 31.6558V26.405C51.3742 26.5054 52.526 27.6403 52.526 29.0362ZM17.5043 9.65548C20.0616 4.17911 28.5904 2.73199 32.7438 2.73199C36.8972 2.73199 45.4259 4.17911 47.9845 9.65607C49.8324 13.6063 48.994 17.2408 48.3875 19.215C48.1637 19.094 47.9321 18.9892 47.7057 18.8736C38.4894 14.1543 27.2317 13.9861 17.6562 18.9432C17.4711 19.0396 17.2804 19.1256 17.0975 19.2255C16.4836 17.2402 15.6552 13.6156 17.5043 9.65548ZM13.3224 29.0362C13.3224 27.7518 14.291 26.6795 15.5708 26.438V31.623C14.291 31.3824 13.3224 30.3145 13.3224 29.0362ZM17.4758 33.1498V25.0702C18.1374 25.1492 18.8186 25.0447 19.3882 24.7095C27.5849 19.8905 37.8948 19.8868 46.1018 24.7095C46.5632 24.9801 47.0977 25.1241 47.6484 25.1241C47.7732 25.1241 47.8947 25.0983 48.0179 25.0837V32.7176C48.0179 37.664 45.5779 42.0505 41.7944 44.7705C41.7317 44.8104 41.6694 44.8478 41.6187 44.9002C39.3106 46.5095 36.5195 47.5058 33.4817 47.6398C29.2774 47.8144 25.2853 46.424 22.2431 43.6832C19.1686 40.9155 17.4758 37.1744 17.4758 33.1498ZM32.7289 49.4553C33.0092 49.4553 33.2907 49.4495 33.5722 49.4366C36.4118 49.3114 39.059 48.5181 41.3631 47.2196V49.0536C41.3631 53.5115 37.4949 57.1378 32.74 57.1378C27.979 57.1378 24.1046 53.5115 24.1046 49.0536V47.2324C26.7031 48.6764 29.6501 49.4553 32.7289 49.4553ZM9.6539 56.1129C10.3717 55.7134 10.9911 55.3763 11.5576 55.0764V61.4264C9.77094 61.5212 8.34426 62.9055 8.34426 64.6107V69.8961C6.25825 68.8557 4.1676 67.674 2.00192 66.295C2.90726 62.1006 5.67413 58.411 9.6539 56.1129ZM10.2492 70.8088V64.6107C10.2492 63.8236 10.9077 63.2075 11.7473 63.2075C12.6698 63.2075 56.0818 63.2075 53.7451 63.2075C54.5649 63.2075 55.2309 63.8364 55.2309 64.6107V70.6551C40.502 77.4477 25.2988 77.7046 10.2492 70.8088ZM57.1358 69.755V64.6107C57.1358 62.9021 55.7094 61.5151 53.9237 61.4254V55.0818C54.5392 55.4074 55.1645 55.7466 55.8014 56.1059C59.7886 58.4075 62.5555 62.0924 63.4633 66.2821C61.2846 67.6085 59.1998 68.7484 57.1358 69.755Z" fill="#22252D"/>
<path d="M32.7442 36.1917C33.4785 36.1917 34.2114 35.9762 34.8377 35.5463C35.2644 35.2547 35.3586 34.6925 35.0486 34.2907C34.7398 33.8889 34.1445 33.7976 33.719 34.0916C33.1362 34.4898 32.3523 34.4898 31.7719 34.0916C31.3428 33.7987 30.7487 33.8901 30.4412 34.2895C30.1311 34.6913 30.2254 35.2547 30.6508 35.5463C31.2771 35.9762 32.01 36.1917 32.7442 36.1917Z" fill="#22252D"/>
<path d="M38.9036 36.401C34.7564 38.4132 30.7282 38.4132 26.581 36.401C26.2871 36.2581 25.9324 36.3002 25.6496 36.4631C25.3656 36.6259 25.1932 36.9468 25.1932 37.2607C25.1932 41.1822 28.5802 44.3727 32.7423 44.3727C36.9044 44.3727 40.2913 41.1822 40.2913 37.201C40.2913 36.8871 40.1189 36.5966 39.8349 36.4326C39.5522 36.271 39.1975 36.2569 38.9036 36.401ZM32.7423 42.5736C30.154 42.5736 27.9675 40.9257 27.3041 38.6862C30.9204 40.0378 34.5641 40.0378 38.1805 38.6862C37.517 40.9256 35.3306 42.5736 32.7423 42.5736Z" fill="#22252D"/>
<path d="M22.6272 29.7016C23.0724 29.9675 23.6603 29.8433 23.9431 29.4263C24.3213 28.8641 24.9451 28.542 25.652 28.542H25.6533C26.3602 28.542 26.9828 28.8641 27.361 29.4252C27.6432 29.8451 28.2338 29.9677 28.6756 29.7016C29.1196 29.4346 29.2511 28.8782 28.9683 28.46C28.244 27.3848 27.0051 26.7429 25.6533 26.7429C25.6533 26.7429 25.6533 26.7429 25.652 26.7429C24.3015 26.7429 23.0613 27.3848 22.3358 28.4589C22.053 28.8782 22.1845 29.4345 22.6272 29.7016Z" fill="#22252D"/>
<path d="M36.8097 29.7016C37.2519 29.9679 37.8424 29.8446 38.1243 29.4251C38.5025 28.8641 39.1251 28.542 39.832 28.542C39.832 28.542 39.832 28.542 39.8332 28.542C40.5401 28.542 41.1639 28.8641 41.5422 29.4263C41.825 29.8456 42.4128 29.9674 42.858 29.7016C43.3008 29.4345 43.4322 28.8782 43.1495 28.4588C42.424 27.3848 41.185 26.7429 39.8332 26.7429C39.832 26.7429 39.832 26.7429 39.832 26.7429C38.4802 26.7429 37.2413 27.3848 36.517 28.46C36.2342 28.8782 36.3657 29.4345 36.8097 29.7016Z" fill="#22252D"/>
</svg>
