<svg width="52" height="81" viewBox="0 0 52 81" fill="none" xmlns="http://www.w3.org/2000/svg">
<path d="M27.5883 3.27979C14.343 3.27979 3.56702 13.4571 3.56702 25.9665L3.56702 58.0337C3.56702 70.5432 14.343 80.7205 27.5883 80.7205C40.8336 80.7205 51.6096 70.5432 51.6096 58.0337L51.6096 25.9665C51.6096 13.4571 40.8336 3.27979 27.5883 3.27979Z" fill="#F9D806"/>
<path fill-rule="evenodd" clip-rule="evenodd" d="M0.390503 22.9665C0.390503 10.4571 11.1664 0.279785 24.4118 0.279785C37.6571 0.279785 48.433 10.4571 48.433 22.9665V55.0337C48.433 67.5432 37.6571 77.7205 24.4118 77.7205C11.1664 77.7205 0.390503 67.5432 0.390503 55.0337V22.9665ZM24.4118 75.3594C36.279 75.3594 45.9331 66.2416 45.9331 55.0337V22.9665C45.9331 11.7586 36.279 2.6408 24.4118 2.6408C12.5446 2.6408 2.8904 11.7586 2.8904 22.9665V55.0337C2.8904 66.2416 12.5446 75.3594 24.4118 75.3594ZM24.2232 38.6426H24.6016C30.44 38.6426 35.1908 43.1145 35.1908 48.6124C35.1908 53.8333 30.9045 58.121 25.4732 58.5406V61.2245C25.4732 61.877 24.9141 62.405 24.2232 62.405C23.5324 62.405 22.9733 61.877 22.9733 61.2245V58.4517C17.9073 57.7105 14.0137 53.5876 14.0137 48.6124C14.0137 47.9599 14.5727 47.4319 15.2636 47.4319C15.9545 47.4319 16.5136 47.9599 16.5136 48.6124C16.5136 52.8076 20.1414 56.2211 24.6016 56.2211C29.0619 56.2211 32.6909 52.8076 32.6909 48.6124C32.6909 44.4172 29.0619 41.0036 24.6016 41.0036H24.2232C18.3849 41.0036 13.6341 36.5318 13.6341 31.035C13.6341 25.936 17.7226 21.7262 22.9733 21.1412V18.4229C22.9733 17.7704 23.5324 17.2424 24.2232 17.2424C24.9141 17.2424 25.4732 17.7704 25.4732 18.4229V21.1412C30.7235 21.7262 34.8112 25.936 34.8112 31.035C34.8112 31.6875 34.2521 32.2155 33.5613 32.2155C32.8704 32.2155 32.3113 31.6875 32.3113 31.035C32.3113 26.8398 28.6835 23.4263 24.2232 23.4263C19.763 23.4263 16.134 26.8398 16.134 31.035C16.134 35.2302 19.763 38.6426 24.2232 38.6426Z" fill="#22252D"/>
</svg>
